<svg version="1.1" id="Layer_1" xmlns="http://www.w3.org/2000/svg" xmlns:xlink="http://www.w3.org/1999/xlink" x="0px" y="0px"
	 width="100%" viewBox="0 0 148 148" enable-background="new 0 0 148 148" xml:space="preserve">
<path fill="#FEFEFD" opacity="1.000000" stroke="none" 
	d="
M1.000000,62.000000 
	C1.000000,41.350376 1.000000,21.200752 1.000000,1.025563 
	C50.274590,1.025563 99.549202,1.025563 148.911896,1.025563 
	C148.911896,50.232769 148.911896,99.465752 148.911896,148.849365 
	C99.667015,148.849365 50.333565,148.849365 1.000000,148.849365 
	C1.000000,120.117836 1.000000,91.308922 1.000000,62.000000 
M12.902162,43.959141 
	C12.865004,49.745728 12.768987,55.532650 12.802115,61.318836 
	C12.889163,76.522522 13.032435,91.725891 13.129628,107.634445 
	C14.109714,109.161797 14.731873,111.334656 16.129225,112.109489 
	C23.943583,116.442543 31.585518,121.552856 39.976055,124.259857 
	C49.967617,127.483391 58.365421,121.168617 58.669163,110.684196 
	C59.238354,91.037140 58.923531,71.363251 58.824799,51.701286 
	C58.819202,50.586292 57.672794,48.822430 56.672890,48.478596 
	C51.958485,46.857487 48.306156,49.681126 48.302273,54.684128 
	C48.288692,72.181252 48.325226,89.678467 48.283215,107.175507 
	C48.265430,114.582008 43.813072,117.416924 37.111732,114.126030 
	C32.937897,112.076347 28.831615,109.777596 25.053982,107.086693 
	C23.511015,105.987610 22.049089,103.567688 22.025671,101.729874 
	C21.800604,84.068962 21.967070,66.403397 21.818476,48.740864 
	C21.792616,45.667061 22.785240,43.992626 25.448093,42.487446 
	C41.095509,33.642738 56.680820,24.685005 72.168274,15.563675 
	C74.634117,14.111419 76.261879,14.560830 78.429741,15.836141 
	C93.492546,24.697281 108.579796,33.518776 123.757027,42.181606 
	C126.285912,43.625038 127.121956,45.254513 127.103088,48.089138 
	C126.984451,65.918770 126.936325,83.750771 127.137039,101.578934 
	C127.175110,104.960808 125.913025,106.560669 123.152206,108.127510 
	C109.547852,115.848358 95.874512,123.479454 82.629196,131.785934 
	C77.115761,135.243546 72.757782,135.969818 67.667076,131.610794 
	C62.465771,127.157051 57.110058,128.375488 51.096977,132.244522 
	C57.229671,135.913696 62.912735,139.211960 68.488998,142.681839 
	C73.087326,145.543182 77.448616,145.405869 82.089287,142.665405 
	C97.995682,133.272202 113.954453,123.966560 129.957382,114.738739 
	C134.120056,112.338394 136.214722,109.052086 136.200928,104.218369 
	C136.145279,84.721733 136.156494,65.224808 136.193634,45.728077 
	C136.202347,41.150742 134.399338,37.808044 130.370667,35.485989 
	C114.077583,26.094933 97.816689,16.647488 81.588104,7.145399 
	C77.103294,4.519475 72.865845,4.618945 68.398438,7.210793 
	C52.000008,16.724636 35.466660,26.009630 19.189133,35.724308 
	C16.621496,37.256718 15.112426,40.562817 12.902162,43.959141 
M89.676003,79.843185 
	C93.596191,80.520874 97.687630,80.726936 101.368561,82.063522 
	C103.387245,82.796532 106.110962,85.522324 106.008560,87.196098 
	C105.871330,89.439041 103.680367,92.000557 101.700851,93.590927 
	C97.967934,96.590004 93.337410,95.051636 89.052727,95.003777 
	C81.881248,94.923676 75.390907,94.026917 73.299789,85.207092 
	C73.017639,84.017006 68.632057,83.507393 66.106369,83.356781 
	C65.509590,83.321198 64.053894,86.084244 64.189850,87.439880 
	C64.691902,92.446083 66.805069,96.966881 71.414963,99.325668 
	C83.875420,105.701447 96.625542,105.926559 109.228859,99.732697 
	C111.325676,98.702217 113.156044,96.571106 114.428993,94.525177 
	C118.596565,87.826950 116.698814,77.670929 110.642296,75.159981 
	C106.058578,73.259636 101.132210,72.085327 96.267815,70.989822 
	C91.092987,69.824417 85.717949,69.469299 80.626358,68.054787 
	C78.792068,67.545197 76.151596,64.816216 76.326393,63.402718 
	C76.585220,61.309692 78.796959,58.103699 80.580856,57.808228 
	C85.888206,56.929157 91.494614,56.565552 96.777458,57.365498 
	C99.473045,57.773678 102.980255,60.645615 103.917000,63.209156 
	C105.839401,68.470055 109.581619,66.553429 112.894768,66.843689 
	C113.059380,64.493462 114.078033,61.738041 113.198105,59.883396 
	C111.697060,56.719627 109.594643,52.969383 106.707436,51.489502 
	C95.586998,45.789574 83.918694,45.532280 72.721169,51.367016 
	C66.988708,54.354046 65.171982,59.942497 65.929482,66.299858 
	C66.600044,71.927681 70.003448,75.394890 75.162422,76.899315 
	C79.605286,78.194901 84.246910,78.808876 89.676003,79.843185 
z"/>
<path fill="#85CE2D" opacity="1.000000" stroke="none" 
	d="
M13.113914,43.048824 
	C15.112426,40.562817 16.621496,37.256718 19.189133,35.724308 
	C35.466660,26.009630 52.000008,16.724636 68.398438,7.210793 
	C72.865845,4.618945 77.103294,4.519475 81.588104,7.145399 
	C97.816689,16.647488 114.077583,26.094933 130.370667,35.485989 
	C134.399338,37.808044 136.202347,41.150742 136.193634,45.728077 
	C136.156494,65.224808 136.145279,84.721733 136.200928,104.218369 
	C136.214722,109.052086 134.120056,112.338394 129.957382,114.738739 
	C113.954453,123.966560 97.995682,133.272202 82.089287,142.665405 
	C77.448616,145.405869 73.087326,145.543182 68.488998,142.681839 
	C62.912735,139.211960 57.229671,135.913696 51.096977,132.244522 
	C57.110058,128.375488 62.465771,127.157051 67.667076,131.610794 
	C72.757782,135.969818 77.115761,135.243546 82.629196,131.785934 
	C95.874512,123.479454 109.547852,115.848358 123.152206,108.127510 
	C125.913025,106.560669 127.175110,104.960808 127.137039,101.578934 
	C126.936325,83.750771 126.984451,65.918770 127.103088,48.089138 
	C127.121956,45.254513 126.285912,43.625038 123.757027,42.181606 
	C108.579796,33.518776 93.492546,24.697281 78.429741,15.836141 
	C76.261879,14.560830 74.634117,14.111419 72.168274,15.563675 
	C56.680820,24.685005 41.095509,33.642738 25.448093,42.487446 
	C22.785240,43.992626 21.792616,45.667061 21.818476,48.740864 
	C21.967070,66.403397 21.800604,84.068962 22.025671,101.729874 
	C22.049089,103.567688 23.511015,105.987610 25.053982,107.086693 
	C28.831615,109.777596 32.937897,112.076347 37.111732,114.126030 
	C43.813072,117.416924 48.265430,114.582008 48.283215,107.175507 
	C48.325226,89.678467 48.288692,72.181252 48.302273,54.684128 
	C48.306156,49.681126 51.958485,46.857487 56.672890,48.478596 
	C57.672794,48.822430 58.819202,50.586292 58.824799,51.701286 
	C58.923531,71.363251 59.238354,91.037140 58.669163,110.684196 
	C58.365421,121.168617 49.967617,127.483391 39.976055,124.259857 
	C31.585518,121.552856 23.943583,116.442543 16.129225,112.109489 
	C14.731873,111.334656 14.109714,109.161797 13.414070,106.976349 
	C13.787625,85.801826 13.883698,65.285431 13.929827,44.768917 
	C13.931114,44.196167 13.397894,43.622215 13.113914,43.048824 
z"/>
<path fill="#85CE2C" opacity="1.000000" stroke="none" 
	d="
M89.238327,79.783707 
	C84.246910,78.808876 79.605286,78.194901 75.162422,76.899315 
	C70.003448,75.394890 66.600044,71.927681 65.929482,66.299858 
	C65.171982,59.942497 66.988708,54.354046 72.721169,51.367016 
	C83.918694,45.532280 95.586998,45.789574 106.707436,51.489502 
	C109.594643,52.969383 111.697060,56.719627 113.198105,59.883396 
	C114.078033,61.738041 113.059380,64.493462 112.894760,66.843689 
	C109.581619,66.553429 105.839401,68.470055 103.917000,63.209156 
	C102.980255,60.645615 99.473045,57.773678 96.777458,57.365498 
	C91.494614,56.565552 85.888206,56.929157 80.580856,57.808228 
	C78.796959,58.103699 76.585220,61.309692 76.326393,63.402718 
	C76.151596,64.816216 78.792068,67.545197 80.626358,68.054787 
	C85.717949,69.469299 91.092987,69.824417 96.267815,70.989822 
	C101.132210,72.085327 106.058578,73.259636 110.642296,75.159981 
	C116.698814,77.670929 118.596565,87.826950 114.428993,94.525177 
	C113.156044,96.571106 111.325676,98.702217 109.228859,99.732697 
	C96.625542,105.926559 83.875420,105.701447 71.414963,99.325668 
	C66.805069,96.966881 64.691902,92.446083 64.189850,87.439880 
	C64.053894,86.084244 65.509590,83.321198 66.106369,83.356781 
	C68.632057,83.507393 73.017639,84.017006 73.299789,85.207092 
	C75.390907,94.026917 81.881248,94.923676 89.052727,95.003777 
	C93.337410,95.051636 97.967934,96.590004 101.700851,93.590927 
	C103.680367,92.000557 105.871330,89.439041 106.008560,87.196098 
	C106.110962,85.522324 103.387245,82.796532 101.368561,82.063522 
	C97.687630,80.726936 93.596191,80.520874 89.238327,79.783707 
z"/>
<path fill="#78CA00" opacity="1.000000" stroke="none" 
	d="
M13.008038,43.503983 
	C13.397894,43.622215 13.931114,44.196167 13.929827,44.768917 
	C13.883698,65.285431 13.787625,85.801826 13.425910,106.623810 
	C13.032435,91.725891 12.889163,76.522522 12.802115,61.318836 
	C12.768987,55.532650 12.865004,49.745728 13.008038,43.503983 
z"/>
</svg>